<svg xmlns="http://www.w3.org/2000/svg" width="76.376" height="76.389" viewBox="0 0 76.376 76.389">
  <g id="Group_1636" data-name="Group 1636" transform="translate(0 0)">
    <path id="Path_834" data-name="Path 834" d="M65.218,65.218A38.19,38.19,0,0,1,2.769,23.968L3.82,21.2,32.752,50.131l-3.724,3.724H53.759V29.028l-3.724,3.724L21.2,3.82l2.674-1.05A38.231,38.231,0,0,1,65.218,65.218ZM5.347,28.169A34.3,34.3,0,1,0,28.169,5.347L50.131,27.31l7.543-7.544v38H19.766l7.543-7.544Z" transform="translate(-0.002 -0.002)" fill="#0047bb"/>
    <path id="Path_835" data-name="Path 835" d="M29.575,30.386a4.515,4.515,0,0,1,1.146.668,3.094,3.094,0,0,1,.764.859,2.036,2.036,0,0,1,.286,1.146,2.236,2.236,0,0,1-.764,1.719,2.456,2.456,0,0,1-1.337.477l-1.432-.1a7.529,7.529,0,0,1-2.674-.382,13.151,13.151,0,0,1-1.91-.764L22.7,36.689a3.743,3.743,0,0,0,.859.382,4.728,4.728,0,0,0,1.241.382c.477.1,1.05.286,1.623.382a11.575,11.575,0,0,0,1.91.1v1.814h1.337V37.93a7.245,7.245,0,0,0,3.819-1.241,4.371,4.371,0,0,0,1.719-3.724,5.307,5.307,0,0,0-.382-2.2,4.363,4.363,0,0,0-1.05-1.528,5.419,5.419,0,0,0-1.719-1.146c-.668-.286-1.432-.668-2.292-.955-.1,0-.1-.1-.191-.1l-1.337-.573c-.286-.191-.573-.286-.859-.477a1.7,1.7,0,0,1-.668-.764,1.925,1.925,0,0,1-.286-1.05,1.855,1.855,0,0,1,.764-1.528,3.529,3.529,0,0,1,1.05-.477l1.337-.1a11.7,11.7,0,0,1,1.814.191,6.667,6.667,0,0,1,1.91.764l1.05-2.674a6.772,6.772,0,0,0-2.005-.764,11.271,11.271,0,0,0-2.674-.382V17.4H28.334v1.91A6.865,6.865,0,0,0,24.8,20.647a4.678,4.678,0,0,0-1.719,3.82,4.429,4.429,0,0,0,.382,2.005,3.989,3.989,0,0,0,1.05,1.432,5.13,5.13,0,0,0,1.528.955c.573.286,1.146.477,1.814.764.191.1.286.1.382.191Z" transform="translate(-1.026 -0.787)" fill="#0047bb"/>
  </g>
</svg>
