<svg xmlns="http://www.w3.org/2000/svg" width="48.752" height="37.297" viewBox="0 0 48.752 37.297">
  <g id="Group_3384" data-name="Group 3384" transform="translate(0.4 0.1)">
    <path id="Path_1059" data-name="Path 1059" d="M3156.171,839.146a13.986,13.986,0,0,0,3.948-9.6,14.621,14.621,0,0,0-5.968-11.462,23.934,23.934,0,0,0-28.418,0,17.088,17.088,0,0,0-3.505,3.714q1.011-.274,2.062-.454c3.379-3.965,9.134-6.58,15.653-6.58,10.379,0,18.822,6.631,18.822,14.782a12.746,12.746,0,0,1-3.848,8.951.677.677,0,0,0-.158.68l2.012,6.237-6.825-3.081a.677.677,0,0,0-.278-.06.669.669,0,0,0-.281.062,22.192,22.192,0,0,1-6.079,1.758,15.829,15.829,0,0,1-1.506,1.524,24,24,0,0,0,7.865-1.923l7.939,3.584a.673.673,0,0,0,.729-.112.677.677,0,0,0,.194-.713Z" transform="translate(-3111.867 -813.413)" fill="#fff" stroke="#fff" stroke-width="0.2"/>
    <path id="Path_1060" data-name="Path 1060" d="M2892.259,1050.233a18.448,18.448,0,0,0-11.458-3.771,20.013,20.013,0,0,0-5.389.727,18.26,18.26,0,0,0-1.839.62,16.718,16.718,0,0,0-4.23,2.424,11.837,11.837,0,0,0-4.828,9.28,11.306,11.306,0,0,0,3.145,7.716l-.127.393L2865.8,1073a.678.678,0,0,0,.923.825l6.128-2.766.174-.078a19.6,19.6,0,0,0,7.783,1.58,18.686,18.686,0,0,0,10.725-3.223q.375-.265.732-.547.483-.383.921-.792a11.561,11.561,0,0,0,3.907-8.49A11.836,11.836,0,0,0,2892.259,1050.233Zm-17.422,11.648a1.706,1.706,0,1,1,1.706-1.706A1.708,1.708,0,0,1,2874.838,1061.881Zm5.964,0a1.706,1.706,0,1,1,1.706-1.706A1.707,1.707,0,0,1,2880.8,1061.881Zm5.964,0a1.706,1.706,0,1,1,1.706-1.706A1.707,1.707,0,0,1,2886.765,1061.881Z" transform="translate(-2864.515 -1037.091)" fill="none" stroke="#fff" stroke-width="0.8"/>
  </g>
</svg>
