<svg xmlns="http://www.w3.org/2000/svg" width="30.784" height="49.597" viewBox="0 0 30.784 49.597">
  <g id="Group_3380" data-name="Group 3380" transform="translate(0.211 0.4)">
    <g id="Group_3377" data-name="Group 3377" transform="translate(0 0)">
      <path id="Path_2133" data-name="Path 2133" d="M234,170.945v-3.236s3.236-2.427,3.236-5.394V158" transform="translate(-216.772 -126.717)" fill="none" stroke="#fff" stroke-miterlimit="10" stroke-width="0.8"/>
      <path id="Path_2134" data-name="Path 2134" d="M226.551,146l-5.394,4.315c-1.525,1.4-2.157,2.2-2.157,4.315v17.26" transform="translate(-217.953 -127.662)" fill="none" stroke="#fff" stroke-miterlimit="10" stroke-width="0.8"/>
      <rect id="Rectangle_404" data-name="Rectangle 404" width="19" height="5" transform="translate(0.189 43.797)" fill="none" stroke="#fff" stroke-miterlimit="10" stroke-width="0.8"/>
      <path id="Path_2135" data-name="Path 2135" d="M223,157.663l8.63-8.63c1.987-1.987,5.075,2.962,2.708,5.922l-2.708,2.708V160.9a4.016,4.016,0,0,1-4.315,4.315" transform="translate(-217.638 -127.459)" fill="none" stroke="#fff" stroke-miterlimit="10" stroke-width="0.8"/>
      <path id="Path_2136" data-name="Path 2136" d="M226,154.89V131.157A2.157,2.157,0,0,1,228.157,129h17.26a2.157,2.157,0,0,1,2.158,2.157v26.968a2.157,2.157,0,0,1-2.158,2.157H231.394" transform="translate(-217.402 -129)" fill="none" stroke="#fff" stroke-miterlimit="10" stroke-width="0.8"/>
      <path id="Path_2179" data-name="Path 2179" d="M0-.368V30.98" transform="translate(24.758 0.592)" fill="none" stroke="#fff" stroke-width="0.8"/>
    </g>
  </g>
</svg>
