<svg id="Group_3383" data-name="Group 3383" xmlns="http://www.w3.org/2000/svg" width="32.381" height="32.381" viewBox="0 0 32.381 32.381">
  <g id="Group_208" data-name="Group 208" transform="translate(22.014 4.114)">
    <rect id="Rectangle_88" data-name="Rectangle 88" width="2.411" height="6.428" transform="translate(0 1.704) rotate(-45)" fill="#fff"/>
  </g>
  <g id="Group_3136" data-name="Group 3136" transform="translate(0 0)">
    <g id="Group_207" data-name="Group 207" transform="translate(7.649)">
      <path id="Path_219" data-name="Path 219" d="M118.992,7.191a3.22,3.22,0,0,0,0-4.548l-1.7-1.7a3.22,3.22,0,0,0-4.548,0L95.2,18.48v6.251h6.251ZM97.61,22.321V19.477L114.444,2.644a.815.815,0,0,1,1.133,0l1.7,1.7a.8.8,0,0,1,0,1.133L100.455,22.321Z" transform="translate(-95.2 0)" fill="#fff"/>
    </g>
    <g id="Group_209" data-name="Group 209" transform="translate(0 8.092)">
      <path id="Path_220" data-name="Path 220" d="M1.205,124.99H23.085a1.2,1.2,0,0,0,1.205-1.205v-10.59a1.205,1.205,0,1,0-2.41,0v9.385H2.41V103.11H11.8a1.205,1.205,0,1,0,0-2.41H1.205A1.2,1.2,0,0,0,0,101.905v21.879A1.2,1.2,0,0,0,1.205,124.99Z" transform="translate(0 -100.7)" fill="#fff"/>
    </g>
  </g>
</svg>
