<svg xmlns="http://www.w3.org/2000/svg" width="49.284" height="41.389" viewBox="0 0 49.284 41.389">
  <g id="Group_3415" data-name="Group 3415" transform="translate(-28.779 -24.465)">
    <path id="Path_2125" data-name="Path 2125" d="M2086.438,1121.292c.355.156.718.3,1.085.427l.37-1.061q-.51-.179-1-.395Z" transform="translate(-2044.759 -1060.55)" fill="#fff" stroke="#fff" stroke-width="0.2"/>
    <path id="Path_2126" data-name="Path 2126" d="M2055.467,1084.67l-1.095.258q.135.571.312,1.124l1.071-.342C2055.646,1085.369,2055.549,1085.022,2055.467,1084.67Z" transform="translate(-2021.345 -1034.56)" fill="#fff" stroke="#fff" stroke-width="0.2"/>
    <path id="Path_2127" data-name="Path 2127" d="M2075.273,1115.109q.465.351.958.665l.6-.947q-.456-.291-.887-.615Z" transform="translate(-2036.607 -1056.131)" fill="#fff" stroke="#fff" stroke-width="0.2"/>
    <path id="Path_2128" data-name="Path 2128" d="M2098.812,1124.872q.57.1,1.155.164l.114-1.117q-.541-.055-1.068-.152Z" transform="translate(-2053.795 -1063.109)" fill="#fff" stroke="#fff" stroke-width="0.2"/>
    <path id="Path_2129" data-name="Path 2129" d="M2054.008,1072.768h-1.124c0,.392.016.78.044,1.164l1.121-.084Q2054.008,1073.313,2054.008,1072.768Z" transform="translate(-2020.259 -1025.87)" fill="#fff" stroke="#fff" stroke-width="0.2"/>
    <path id="Path_2130" data-name="Path 2130" d="M2058.791,1096.434q.262.523.563,1.023l.962-.581c-.185-.307-.359-.623-.52-.946Z" transform="translate(-2024.573 -1042.782)" fill="#fff" stroke="#fff" stroke-width="0.2"/>
    <path id="Path_2131" data-name="Path 2131" d="M2065.892,1106.673q.374.448.783.867l.8-.785q-.378-.387-.723-.8Z" transform="translate(-2029.757 -1050.101)" fill="#fff" stroke="#fff" stroke-width="0.2"/>
    <path id="Path_2132" data-name="Path 2132" d="M2087.954,990.264a.563.563,0,0,0-.655-.181l-18.09,7.229a18.658,18.658,0,0,0-11.35-3.81,18.859,18.859,0,0,0,0,37.719c1.542,0,6.78-.234,10.438-3.2l7.239,1.768-2.436-6.312a18.824,18.824,0,0,0,2.781-16.661l12.073-15.871A.562.562,0,0,0,2087.954,990.264Zm-12.357,22.1a17.579,17.579,0,0,1-3.581,10.688l-.188.25,1.885,4.886-5.705-1.393-.219.188c-2.679,2.3-6.885,3.115-9.93,3.115a17.736,17.736,0,0,1,0-35.471,17.541,17.541,0,0,1,10.115,3.181l-18.771,7.5a.562.562,0,0,0-.08,1l6.506,3.9v7.351a.562.562,0,0,0,.377.531.568.568,0,0,0,.185.031.562.562,0,0,0,.44-.214l3.808-4.813,6.89,4.133a.564.564,0,0,0,.736-.141l6.966-9.158A17.775,17.775,0,0,1,2075.6,1012.364Zm-18.845,3.586v-5.712l9.4-4.9-6.255,6.64a.393.393,0,0,0-.035.039h0l0,0h0Zm10.723.061-6.284-3.769,8.064-8.559a.562.562,0,0,0-.668-.883l-12.377,6.453-5.539-3.322,35.161-14.052Z" transform="translate(-2010.123 -965.467)" fill="#fff" stroke="#fff" stroke-width="0.2"/>
  </g>
</svg>
