<svg xmlns="http://www.w3.org/2000/svg" width="41.076" height="44.487" viewBox="0 0 41.076 44.487">
  <g id="Group_3381" data-name="Group 3381" transform="translate(0.2 0.268)">
    <g id="Group_3158" data-name="Group 3158" transform="translate(0.938 2.638)">
      <path id="Path_1071" data-name="Path 1071" d="M5.448,0A5.448,5.448,0,1,1,0,5.448,5.448,5.448,0,0,1,5.448,0Z" transform="translate(0.513 0.513)" fill="none" stroke="#0047bb" stroke-width="0.3"/>
      <path id="Path_1063" data-name="Path 1063" d="M902.819,909.206a5.96,5.96,0,1,1,4.215-1.746A5.922,5.922,0,0,1,902.819,909.206Zm0-10.9a4.9,4.9,0,0,0-3.49,1.446h0a4.935,4.935,0,1,0,3.49-1.446Z" transform="translate(-896.858 -897.284)" fill="#0047bb" stroke="#0047bb" stroke-width="0.3"/>
    </g>
    <g id="Group_3159" data-name="Group 3159" transform="translate(27.817 29.515)">
      <path id="Path_1070" data-name="Path 1070" d="M5.448,0A5.448,5.448,0,1,1,0,5.448,5.448,5.448,0,0,1,5.448,0Z" transform="translate(0.513 0.513)" fill="none" stroke="#fff" stroke-width="0.3"/>
      <path id="Path_1064" data-name="Path 1064" d="M2017.332,2023.719a5.964,5.964,0,1,1,4.214-1.747A5.921,5.921,0,0,1,2017.332,2023.719Zm0-10.894a4.933,4.933,0,1,0,3.489,1.443A4.922,4.922,0,0,0,2017.332,2012.825Z" transform="translate(-2011.371 -2011.798)" fill="#0047bb" stroke="#0047bb" stroke-width="0.3"/>
    </g>
    <path id="Path_1065" data-name="Path 1065" d="M878.274,858.361a20.25,20.25,0,0,1,9.422,2.31l-.568.862a19.346,19.346,0,0,0-17.14-.281,6.6,6.6,0,0,0-.537-.607c-.062-.062-.126-.122-.19-.182a20.257,20.257,0,0,1,9.013-2.1Zm-9.217,38.473a20.379,20.379,0,0,0,18.231.1c-.065-.06-.128-.12-.19-.182a6.6,6.6,0,0,1-.537-.607,19.343,19.343,0,0,1-16.935-.177l-.569.864Zm22.285-33.719q.683.573,1.313,1.2a20.353,20.353,0,0,1,3.855,23.394q-.089-.1-.182-.19a6.6,6.6,0,0,0-.607-.537,19.322,19.322,0,0,0-4.972-23.026l.592-.845Zm-26.135,31.169q-.683-.573-1.314-1.2a20.353,20.353,0,0,1-3.856-23.395c.06.064.12.128.182.19a6.523,6.523,0,0,0,.607.536,19.322,19.322,0,0,0,4.972,23.026Z" transform="translate(-857.936 -856.662)" fill="#0047bb" stroke="#0047bb" stroke-width="0.4" fill-rule="evenodd"/>
    <path id="Path_1066" data-name="Path 1066" d="M1071.613,1029.141a1.354,1.354,0,0,1-.215.752,1.426,1.426,0,0,1-.632.523,2.063,2.063,0,0,1-.543.156v.287a.207.207,0,0,1-.206.206h-.485a.207.207,0,0,1-.206-.206v-.287a1.9,1.9,0,0,1-.674-.225,1.5,1.5,0,0,1-.511-.5,1.124,1.124,0,0,1-.2-.6.406.406,0,0,1,.118-.292.4.4,0,0,1,.3-.12.347.347,0,0,1,.249.095.716.716,0,0,1,.175.281,1.868,1.868,0,0,0,.19.368.785.785,0,0,0,.288.245,1.085,1.085,0,0,0,.489.1,1.107,1.107,0,0,0,.676-.194.585.585,0,0,0,.26-.484.506.506,0,0,0-.14-.373.908.908,0,0,0-.363-.22c-.148-.051-.347-.1-.594-.161a4.36,4.36,0,0,1-.833-.272,1.342,1.342,0,0,1-.532-.426,1.1,1.1,0,0,1-.2-.67,1.15,1.15,0,0,1,.208-.677,1.315,1.315,0,0,1,.6-.455,2.086,2.086,0,0,1,.484-.129v-.334a.206.206,0,0,1,.206-.206h.485a.207.207,0,0,1,.206.206v.338a1.865,1.865,0,0,1,.281.071,1.573,1.573,0,0,1,.515.28,1.2,1.2,0,0,1,.3.367.863.863,0,0,1,.094.376.444.444,0,0,1-.118.3.376.376,0,0,1-.294.133.341.341,0,0,1-.244-.079,1.055,1.055,0,0,1-.181-.264,1.206,1.206,0,0,0-.3-.409.886.886,0,0,0-.568-.146.973.973,0,0,0-.584.159.464.464,0,0,0-.223.383.389.389,0,0,0,.076.24.643.643,0,0,0,.209.174,1.431,1.431,0,0,0,.268.114c.09.027.24.067.447.119a6.859,6.859,0,0,1,.708.2,2.113,2.113,0,0,1,.539.267,1.1,1.1,0,0,1,.346.4A1.288,1.288,0,0,1,1071.613,1029.141Z" transform="translate(-1062.881 -1019.594)" fill="#0047bb" fill-rule="evenodd"/>
    <path id="Path_1067" data-name="Path 1067" d="M2186.127,2143.654a1.358,1.358,0,0,1-.216.752,1.423,1.423,0,0,1-.632.522,2.042,2.042,0,0,1-.543.157v.288a.206.206,0,0,1-.206.206h-.485a.206.206,0,0,1-.205-.206v-.289a1.91,1.91,0,0,1-.674-.224,1.5,1.5,0,0,1-.512-.5,1.132,1.132,0,0,1-.2-.6.407.407,0,0,1,.419-.411.35.35,0,0,1,.249.095.71.71,0,0,1,.175.281,1.981,1.981,0,0,0,.19.368.783.783,0,0,0,.29.244,1.061,1.061,0,0,0,.488.1,1.107,1.107,0,0,0,.677-.193.585.585,0,0,0,.259-.484.51.51,0,0,0-.139-.372.887.887,0,0,0-.363-.22,6,6,0,0,0-.594-.161,4.318,4.318,0,0,1-.832-.272,1.35,1.35,0,0,1-.532-.426,1.1,1.1,0,0,1-.2-.67,1.152,1.152,0,0,1,.207-.677,1.336,1.336,0,0,1,.6-.456,2.1,2.1,0,0,1,.485-.128v-.334a.206.206,0,0,1,.205-.206h.485a.207.207,0,0,1,.206.206v.339a1.747,1.747,0,0,1,.281.071,1.553,1.553,0,0,1,.515.28,1.171,1.171,0,0,1,.3.367.857.857,0,0,1,.094.375.444.444,0,0,1-.118.3.375.375,0,0,1-.294.132.339.339,0,0,1-.245-.079,1.1,1.1,0,0,1-.18-.263,1.217,1.217,0,0,0-.3-.408.878.878,0,0,0-.569-.147.984.984,0,0,0-.584.159.462.462,0,0,0-.222.384.39.39,0,0,0,.074.24.657.657,0,0,0,.21.173,1.4,1.4,0,0,0,.267.114c.091.027.24.068.448.12a7.22,7.22,0,0,1,.708.2,2.134,2.134,0,0,1,.539.267,1.109,1.109,0,0,1,.346.4A1.292,1.292,0,0,1,2186.127,2143.654Z" transform="translate(-2150.513 -2107.229)" fill="#0047bb" fill-rule="evenodd"/>
    <path id="Path_1072" data-name="Path 1072" d="M2192.051,2149.825a3.529,3.529,0,0,1-.564,1.968,3.715,3.715,0,0,1-1.648,1.365,5.346,5.346,0,0,1-1.423.409v.752a.539.539,0,0,1-.538.538h-1.27a.538.538,0,0,1-.535-.538v-.754a5.013,5.013,0,0,1-1.764-.586,3.924,3.924,0,0,1-1.336-1.3,2.969,2.969,0,0,1-.515-1.578,1.077,1.077,0,0,1,.309-.763,1.055,1.055,0,0,1,.787-.316.909.909,0,0,1,.652.251,1.856,1.856,0,0,1,.458.731,4.816,4.816,0,0,0,.5.962,2.068,2.068,0,0,0,.756.641,2.814,2.814,0,0,0,1.279.25,2.893,2.893,0,0,0,1.766-.505,1.526,1.526,0,0,0,.677-1.266,1.333,1.333,0,0,0-.363-.975,2.368,2.368,0,0,0-.951-.575c-.384-.131-.9-.272-1.552-.421a11.366,11.366,0,0,1-2.177-.711,3.53,3.53,0,0,1-1.391-1.114,2.873,2.873,0,0,1-.515-1.753,3.012,3.012,0,0,1,.543-1.772,3.5,3.5,0,0,1,1.574-1.191,5.678,5.678,0,0,1,1.268-.334v-.873a.539.539,0,0,1,.535-.539h1.27a.539.539,0,0,1,.538.539v.886a4.569,4.569,0,0,1,.734.185,4.033,4.033,0,0,1,1.347.733,3.105,3.105,0,0,1,.784.961,2.238,2.238,0,0,1,.246.979,1.159,1.159,0,0,1-.311.788.974.974,0,0,1-.769.349.9.9,0,0,1-.641-.208,2.88,2.88,0,0,1-.469-.689,3.121,3.121,0,0,0-.8-1.068,2.294,2.294,0,0,0-1.482-.382,2.58,2.58,0,0,0-1.529.413,1.212,1.212,0,0,0-.582,1,1.018,1.018,0,0,0,.2.626,1.73,1.73,0,0,0,.546.452,3.712,3.712,0,0,0,.7.3c.235.07.626.176,1.17.313a18.116,18.116,0,0,1,1.852.529,5.484,5.484,0,0,1,1.409.7,2.855,2.855,0,0,1,.9,1.04A3.372,3.372,0,0,1,2192.051,2149.825Z" transform="translate(-2167.077 -2125.499)" fill="#0047bb" fill-rule="evenodd"/>
    <path id="Path_1068" data-name="Path 1068" d="M1896.414,787.9l2.077,4.246.214.438-.456.172L1893.9,794.4l-.312-.83,3.889-1.467-1.863-3.808Z" transform="translate(-1868.616 -787.904)" fill="#0047bb" stroke="#0047bb" stroke-width="0.4" fill-rule="evenodd"/>
    <path id="Path_1069" data-name="Path 1069" d="M1286.079,2347.714l-2.077-4.246-.214-.437.455-.172,4.344-1.638.313.83-3.889,1.466,1.863,3.808Z" transform="translate(-1273.518 -2303.761)" fill="#0047bb" stroke="#0047bb" stroke-width="0.4" fill-rule="evenodd"/>
  </g>
</svg>
