<svg xmlns="http://www.w3.org/2000/svg" width="86.073" height="76.389" viewBox="0 0 86.073 76.389">
  <path id="Path_808" data-name="Path 808" d="M86.035,16.749c0-.313-.313-.625-.625-.938l-8.127-4.688h0l-20-10.94a2.072,2.072,0,0,0-2.188.625L44.464,19.562,34.149,22.688A14,14,0,0,0,27.9,26.439L10.082,45.505,1.017,50.194A1.393,1.393,0,0,0,.08,52.069L11.02,75.512l.938.938h.625c.313,0,.625,0,.625-.313l9.377-4.688L36.65,68.01a13.065,13.065,0,0,0,8.127-5.939h0l10.94,5.939a1.091,1.091,0,0,1,.625.313c.625,0,.938-.313,1.25-.938L81.347,26.126h0L85.723,18A2.363,2.363,0,0,0,86.035,16.749ZM56.967,3.622,62.28,6.435a6.948,6.948,0,0,1-4.063,2.5,10.328,10.328,0,0,1-4.376,0ZM3.831,52.069l6.564-3.438,9.69,20.629L13.52,72.7ZM35.712,65.2,22.9,68.323l-10-21.255L30.086,28.314a10.5,10.5,0,0,1,5-3.126L42.589,23,33.212,41.755a2.072,2.072,0,0,0,.625,2.188A7.609,7.609,0,0,0,43.214,43l8.752-8.439a3.31,3.31,0,0,1,4.063-.313,3.617,3.617,0,0,1,1.563,2.188,3.188,3.188,0,0,1-.625,2.813l-.938,1.563c-.313.313-.625.625-.625.938h0L42.9,60.509A14.366,14.366,0,0,1,35.712,65.2ZM48.84,29.565A4.485,4.485,0,0,1,52.9,27.377a14.057,14.057,0,0,1,6.564,1.875c4.063,2.5,6.251,6.876,4.688,9.69-.938,1.563-2.813,2.188-5,2.188.938-1.563,1.563-3.126.938-5a6.462,6.462,0,0,0-3.126-4.376h0a6.581,6.581,0,0,0-7.814.625l-.938.938A5.38,5.38,0,0,1,48.84,29.565Zm8.127,14.378c.625,0,1.563.313,2.188.313a8.534,8.534,0,0,0,7.5-3.751c2.5-4.376,0-10.627-5.626-13.753-2.813-1.563-5.626-2.5-8.439-2.188s-5.314,1.563-6.564,3.751a7.964,7.964,0,0,0,0,7.5l-5.314,5a4.976,4.976,0,0,1-4.063.938L46.965,21.438l5.314-9.69a18.293,18.293,0,0,0,4.063.625,8.654,8.654,0,0,0,2.813-.313A11.347,11.347,0,0,0,65.093,8l9.377,5.314a12.326,12.326,0,0,0-.313,7.5,10.457,10.457,0,0,0,3.751,5.314L60.4,57.383a9.513,9.513,0,0,0-6.564-.313A11.347,11.347,0,0,0,47.9,61.134l-1.25-.625Zm-1.25,20.942L50.4,61.759a6.948,6.948,0,0,1,4.063-2.5,10.328,10.328,0,0,1,4.376,0ZM79.472,23a8.092,8.092,0,0,1-2.188-3.438,6.1,6.1,0,0,1,0-4.688L82.6,17.687Z" transform="translate(0.037 -0.061)" fill="#fff"/>
</svg>
