<svg id="Group_4744" data-name="Group 4744" xmlns="http://www.w3.org/2000/svg" width="27.63" height="24.346" viewBox="0 0 27.63 24.346">
  <defs>
    <style>
      .cls-1 {
        fill: #888b8d;
      }
    </style>
  </defs>
  <path id="Path_847" data-name="Path 847" class="cls-1" d="M19.916,75.732h1.652v10.4H20.515a.516.516,0,1,0,0,1.033H41.9a.516.516,0,1,0,0-1.033H40.432v-10.4H42.5a.516.516,0,0,0,0-1.033H19.916a.511.511,0,0,0-.516.516A.518.518,0,0,0,19.916,75.732Zm2.685,0h1.714v10.4H22.6Zm9.262,10.4H30.148v-10.4h1.714Zm1.032-10.4h3.758v10.4H32.895Zm-3.779,10.4H25.347v-10.4h3.758v10.4Zm10.284,0H37.686v-10.4H39.4Z" transform="translate(-17.397 -66.987)"/>
  <path id="Path_848" data-name="Path 848" class="cls-1" d="M22.349,6.907h22.1a.53.53,0,0,0,.506-.392.513.513,0,0,0-.258-.578L33.645.062a.506.506,0,0,0-.485,0L22.111,5.937a.516.516,0,0,0,.237.971ZM33.4,1.1l8.972,4.77H24.414Z" transform="translate(-19.582 0)"/>
  <path id="Path_849" data-name="Path 849" class="cls-1" d="M13.816,206.632H37.667a.516.516,0,1,0,0-1.032H13.816a.516.516,0,1,0,0,1.032Z" transform="translate(-11.927 -184.372)"/>
  <path id="Path_850" data-name="Path 850" class="cls-1" d="M27.114,225.8H.516a.516.516,0,1,0,0,1.033h26.6a.511.511,0,0,0,.516-.516A.518.518,0,0,0,27.114,225.8Z" transform="translate(0 -202.486)"/>
</svg>
