<svg xmlns="http://www.w3.org/2000/svg" width="26" height="26.478" viewBox="0 0 26 26.478">
  <defs>
    <style>
      .cls-1 {
        fill: #888b8d;
      }
    </style>
  </defs>
  <g id="Group_3282" data-name="Group 3282" transform="translate(-414.018 -413.97)">
    <g id="Group_3280" data-name="Group 3280" transform="translate(414.018 413.97)">
      <path id="Path_2126" data-name="Path 2126" class="cls-1" d="M439.373,413.97h-24.71a.644.644,0,0,0-.645.644V417.5a.645.645,0,0,0,.645.645h1.254V431.18a.644.644,0,0,0,.644.644h9.812v3.207a2.751,2.751,0,1,0,1.289,0v-3.207h9.812a.644.644,0,0,0,.644-.644V418.147h1.255a.645.645,0,0,0,.645-.645v-2.888A.644.644,0,0,0,439.373,413.97ZM428.479,437.7a1.461,1.461,0,1,1-1.461-1.462A1.463,1.463,0,0,1,428.479,437.7Zm8.35-7.162H417.206V418.147h19.624Zm1.9-13.677H415.307v-1.6h23.422Z" transform="translate(-414.018 -413.97)"/>
    </g>
    <g id="Group_3281" data-name="Group 3281" transform="translate(420.935 420.94)">
      <path id="Path_2127" data-name="Path 2127" class="cls-1" d="M425.534,431.078l2.226-2.227,2.227,2.227a.645.645,0,0,0,.911,0l4.412-4.412v1.2a.645.645,0,0,0,1.289,0v-2.756a.633.633,0,0,0-.05-.246.632.632,0,0,0-.348-.349.651.651,0,0,0-.246-.05H433.2a.645.645,0,0,0,0,1.289h1.2l-3.956,3.956-2.227-2.226a.644.644,0,0,0-.911,0l-2.682,2.682a.645.645,0,0,0,.912.912Z" transform="translate(-424.434 -424.466)"/>
    </g>
  </g>
</svg>
