<svg xmlns="http://www.w3.org/2000/svg" width="21.714" height="25.174" viewBox="0 0 21.714 25.174">
  <defs>
    <style>
      .cls-1 {
        fill: #888b8d;
      }
    </style>
  </defs>
  <g id="normal_2_" transform="translate(0.032)">
    <g id="XMLID_3_" transform="translate(-0.032 3.392)">
      <path id="Path_925" data-name="Path 925" class="cls-1" d="M10.829,19v1.071h.321a6.3,6.3,0,0,1,4.356,2.035,6.569,6.569,0,0,1,1.768,4.481v3.946a3.321,3.321,0,0,0,.857,2.232l2.267,2.5H1.26l2.267-2.5a3.321,3.321,0,0,0,.857-2.232v-4.16a6.39,6.39,0,0,1,6.445-6.3V19Zm2.143,19.283a2.459,2.459,0,0,1-2.143,1.428,2.448,2.448,0,0,1-2.143-1.428ZM10.829,19a7.442,7.442,0,0,0-7.517,7.374v4.16a2.312,2.312,0,0,1-.589,1.518L.206,34.837a.9.9,0,0,0,.7,1.5H20.756a.9.9,0,0,0,.7-1.5l-2.517-2.785a2.277,2.277,0,0,1-.589-1.518V26.588a7.566,7.566,0,0,0-7.16-7.57A2.277,2.277,0,0,0,10.829,19Zm3.464,18.211H7.366a3.584,3.584,0,0,0,3.464,3.571,3.584,3.584,0,0,0,3.464-3.571Z" transform="translate(0.032 -19)"/>
    </g>
    <g id="XMLID_1_" transform="translate(8.937)">
      <path id="XMLID_2_" class="cls-1" d="M53.466,4.053a.526.526,0,0,1-.536-.536V1.893a.84.84,0,0,0-.25-.589.9.9,0,0,0-.589-.232.823.823,0,0,0-.821.839V3.535a.536.536,0,0,1-1.071,0V1.91a1.893,1.893,0,1,1,3.785-.018V3.517A.511.511,0,0,1,53.466,4.053Z" transform="translate(-50.198)"/>
    </g>
  </g>
</svg>
