<svg id="Group_4745" data-name="Group 4745" xmlns="http://www.w3.org/2000/svg" width="24.292" height="26.387" viewBox="0 0 24.292 26.387">
  <defs>
    <style>
      .cls-1 {
        fill: #888b8d;
      }
    </style>
  </defs>
  <g id="Group_1660" data-name="Group 1660" transform="translate(6.391 7.444)">
    <path id="Path_851" data-name="Path 851" class="cls-1" d="M73.659,90.519a5.759,5.759,0,1,1,5.759-5.759A5.765,5.765,0,0,1,73.659,90.519Zm0-10.436a4.677,4.677,0,1,0,4.677,4.677A4.683,4.683,0,0,0,73.659,80.082Z" transform="translate(-67.9 -79)"/>
  </g>
  <g id="Group_1661" data-name="Group 1661" transform="translate(9.127 11.422)">
    <path id="Path_852" data-name="Path 852" class="cls-1" d="M99.377,125.766a.549.549,0,0,1-.386-.16l-1.854-1.854a.546.546,0,1,1,.772-.772l1.477,1.477,3.021-3.021a.546.546,0,1,1,.772.772l-3.407,3.407A.669.669,0,0,1,99.377,125.766Z" transform="translate(-96.975 -121.275)"/>
  </g>
  <g id="Group_1662" data-name="Group 1662" transform="translate(0 0)">
    <path id="Path_853" data-name="Path 853" class="cls-1" d="M12.144,26.287A2.683,2.683,0,0,1,10.6,25.8C7.58,23.671.5,17.394-.014,5.132a1.629,1.629,0,0,1,.452-1.2A1.823,1.823,0,0,1,1.971,3.4a15.8,15.8,0,0,0,1.976.122C6.234,3.523,9.312,3,11,.5a1.369,1.369,0,0,1,2.268,0C14.958,3,18.035,3.523,20.313,3.523A15.581,15.581,0,0,0,22.289,3.4a1.814,1.814,0,0,1,1.525.536,1.628,1.628,0,0,1,.461,1.214C23.747,17.422,16.661,23.68,13.64,25.807A2.49,2.49,0,0,1,12.144,26.287Zm-10.4-21.8a.688.688,0,0,0-.518.216.514.514,0,0,0-.151.4c.5,11.782,7.265,17.786,10.154,19.819a1.588,1.588,0,0,0,1.8.009C15.918,22.89,22.693,16.9,23.2,5.1a.547.547,0,0,0-.16-.414.715.715,0,0,0-.612-.207,17.853,17.853,0,0,1-2.108.132c-2.55,0-5.995-.6-7.952-3.491A.265.265,0,0,0,12.135,1a.289.289,0,0,0-.235.122C9.942,4.012,6.5,4.615,3.948,4.615A17.853,17.853,0,0,1,1.84,4.483Z" transform="translate(0.016 0.1)"/>
  </g>
  <ellipse id="Ellipse_80" data-name="Ellipse 80" class="cls-1" cx="0.621" cy="0.621" rx="0.621" ry="0.621" transform="translate(2.702 6.042)"/>
  <ellipse id="Ellipse_81" data-name="Ellipse 81" class="cls-1" cx="0.621" cy="0.621" rx="0.621" ry="0.621" transform="translate(11.529 3.557)"/>
  <path id="Path_854" data-name="Path 854" class="cls-1" d="M123.742,240.321a.621.621,0,1,1-.621-.621A.621.621,0,0,1,123.742,240.321Z" transform="translate(-110.971 -217.133)"/>
  <ellipse id="Ellipse_82" data-name="Ellipse 82" class="cls-1" cx="0.621" cy="0.621" rx="0.621" ry="0.621" transform="translate(20.357 6.042)"/>
</svg>
