<svg id="Group_4746" data-name="Group 4746" xmlns="http://www.w3.org/2000/svg" width="20.511" height="26.693" viewBox="0 0 20.511 26.693">
  <defs>
    <style>
      .cls-1 {
        fill: #888b8d;
      }
    </style>
  </defs>
  <path id="Path_855" data-name="Path 855" class="cls-1" d="M195.736,151.118a.618.618,0,1,1-.618-.618A.616.616,0,0,1,195.736,151.118Z" transform="translate(-178.028 -137.746)"/>
  <path id="Path_856" data-name="Path 856" class="cls-1" d="M33.4,151.118a.618.618,0,1,0,.618-.618A.616.616,0,0,0,33.4,151.118Z" transform="translate(-30.571 -137.746)"/>
  <path id="Path_857" data-name="Path 857" class="cls-1" d="M34.736,268.018a.618.618,0,1,0-.618.618A.616.616,0,0,0,34.736,268.018Z" transform="translate(-30.663 -244.746)"/>
  <path id="Path_858" data-name="Path 858" class="cls-1" d="M194.4,268.018a.618.618,0,1,1,.618.618A.616.616,0,0,1,194.4,268.018Z" transform="translate(-177.937 -244.746)"/>
  <path id="Path_859" data-name="Path 859" class="cls-1" d="M2.447,26.593H18.064a2.454,2.454,0,0,0,2.447-2.447V12.29a2.458,2.458,0,0,0-2.447-2.447h-.491V7.217a7.317,7.317,0,1,0-14.634.008V9.851H2.447A2.454,2.454,0,0,0,0,12.3V24.146A2.454,2.454,0,0,0,2.447,26.593ZM3.913,7.225a6.343,6.343,0,0,1,12.686,0V9.851H3.913V7.225ZM.974,12.3a1.466,1.466,0,0,1,1.465-1.465H18.055a1.475,1.475,0,0,1,1.474,1.474V24.163a1.466,1.466,0,0,1-1.465,1.465H2.447A1.466,1.466,0,0,1,.982,24.163V12.3Z" transform="translate(0 0.1)"/>
  <path id="Path_860" data-name="Path 860" class="cls-1" d="M93.091,173v2.2a1.465,1.465,0,1,0,2.93,0V173a2.448,2.448,0,1,0-3.921-1.956A2.5,2.5,0,0,0,93.091,173Zm1.465-3.421a1.464,1.464,0,0,1,.728,2.735l-.246.144v2.744a.491.491,0,1,1-.982,0v-2.744l-.246-.144a1.465,1.465,0,0,1,.745-2.735Z" transform="translate(-84.3 -154.313)"/>
</svg>
