<svg xmlns="http://www.w3.org/2000/svg" width="22.714" height="22.25" viewBox="0 0 22.714 22.25">
  <defs>
    <style>
      .cls-1, .cls-4 {
        fill: none;
      }

      .cls-1, .cls-2 {
        stroke: #888b8d;
      }

      .cls-1 {
        stroke-linecap: round;
        stroke-miterlimit: 10;
      }

      .cls-2 {
        fill: #fff;
      }

      .cls-3 {
        stroke: none;
      }
    </style>
  </defs>
  <g id="Group_4750" data-name="Group 4750" transform="translate(-19.5 -561.5)">
    <path id="Path_2179" data-name="Path 2179" class="cls-1" d="M100.214,40.99H105.2a4.516,4.516,0,1,0-1.219-8.867,5.75,5.75,0,0,0-5.4-3.782h0a5.751,5.751,0,0,0-5.648,4.676,4.338,4.338,0,0,0-.739-.062,4.021,4.021,0,1,0,0,8.035H97.5" transform="translate(-68 533.658)"/>
    <path id="Path_2180" data-name="Path 2180" class="cls-1" d="M105.227,31.817a3.725,3.725,0,0,1,1.982,2.121h0a2.036,2.036,0,0,0,2.459,1.263h0a2.524,2.524,0,0,1,2.2.425,2.341,2.341,0,0,1,.823,1.156,2.49,2.49,0,0,1-2.352,3.29H104" transform="translate(-73.143 532.541)"/>
    <line id="Line_1" data-name="Line 1" class="cls-1" y2="10.543" transform="translate(30.857 572.706)"/>
    <line id="Line_2" data-name="Line 2" class="cls-1" y2="10.543" transform="translate(30.857 572.706)"/>
    <line id="Line_3" data-name="Line 3" class="cls-1" y2="5.658" transform="translate(28.723 575.942)"/>
    <line id="Line_4" data-name="Line 4" class="cls-1" y2="4.009" transform="translate(26.59 575.942)"/>
    <line id="Line_5" data-name="Line 5" class="cls-1" y2="2.36" transform="translate(24.456 575.942)"/>
    <line id="Line_6" data-name="Line 6" class="cls-1" y2="5.658" transform="translate(28.723 575.942)"/>
    <g id="Ellipse_487" data-name="Ellipse 487" class="cls-2" transform="translate(24 572)">
      <circle class="cls-3" cx="0.5" cy="0.5" r="0.5"/>
      <circle class="cls-4" cx="0.5" cy="0.5"/>
    </g>
    <g id="Ellipse_488" data-name="Ellipse 488" class="cls-2" transform="translate(24 570)">
      <circle class="cls-3" cx="0.5" cy="0.5" r="0.5"/>
      <circle class="cls-4" cx="0.5" cy="0.5"/>
    </g>
    <g id="Ellipse_489" data-name="Ellipse 489" class="cls-2" transform="translate(24 568)">
      <circle class="cls-3" cx="0.5" cy="0.5" r="0.5"/>
      <circle class="cls-4" cx="0.5" cy="0.5"/>
    </g>
    <g id="Ellipse_490" data-name="Ellipse 490" class="cls-2" transform="translate(22 568)">
      <circle class="cls-3" cx="0.5" cy="0.5" r="0.5"/>
      <circle class="cls-4" cx="0.5" cy="0.5"/>
    </g>
    <g id="Ellipse_491" data-name="Ellipse 491" class="cls-2" transform="translate(22 570)">
      <circle class="cls-3" cx="0.5" cy="0.5" r="0.5"/>
      <circle class="cls-4" cx="0.5" cy="0.5"/>
    </g>
    <g id="Ellipse_492" data-name="Ellipse 492" class="cls-2" transform="translate(22 572)">
      <circle class="cls-3" cx="0.5" cy="0.5" r="0.5"/>
      <circle class="cls-4" cx="0.5" cy="0.5"/>
    </g>
    <g id="Ellipse_493" data-name="Ellipse 493" class="cls-2" transform="translate(26 572)">
      <circle class="cls-3" cx="0.5" cy="0.5" r="0.5"/>
      <circle class="cls-4" cx="0.5" cy="0.5"/>
    </g>
    <g id="Ellipse_494" data-name="Ellipse 494" class="cls-2" transform="translate(28 572)">
      <circle class="cls-3" cx="0.5" cy="0.5" r="0.5"/>
      <circle class="cls-4" cx="0.5" cy="0.5"/>
    </g>
    <g id="Ellipse_495" data-name="Ellipse 495" class="cls-2" transform="translate(30 570)">
      <circle class="cls-3" cx="0.5" cy="0.5" r="0.5"/>
      <circle class="cls-4" cx="0.5" cy="0.5"/>
    </g>
    <g id="Ellipse_496" data-name="Ellipse 496" class="cls-2" transform="translate(30 568)">
      <circle class="cls-3" cx="0.5" cy="0.5" r="0.5"/>
      <circle class="cls-4" cx="0.5" cy="0.5"/>
    </g>
    <g id="Ellipse_497" data-name="Ellipse 497" class="cls-2" transform="translate(30 566)">
      <circle class="cls-3" cx="0.5" cy="0.5" r="0.5"/>
      <circle class="cls-4" cx="0.5" cy="0.5"/>
    </g>
    <g id="Ellipse_498" data-name="Ellipse 498" class="cls-2" transform="translate(30 564)">
      <circle class="cls-3" cx="0.5" cy="0.5" r="0.5"/>
      <circle class="cls-4" cx="0.5" cy="0.5"/>
    </g>
    <g id="Ellipse_499" data-name="Ellipse 499" class="cls-2" transform="translate(28 564)">
      <circle class="cls-3" cx="0.5" cy="0.5" r="0.5"/>
      <circle class="cls-4" cx="0.5" cy="0.5"/>
    </g>
    <g id="Ellipse_500" data-name="Ellipse 500" class="cls-2" transform="translate(28 566)">
      <circle class="cls-3" cx="0.5" cy="0.5" r="0.5"/>
      <circle class="cls-4" cx="0.5" cy="0.5"/>
    </g>
    <g id="Ellipse_501" data-name="Ellipse 501" class="cls-2" transform="translate(28 568)">
      <circle class="cls-3" cx="0.5" cy="0.5" r="0.5"/>
      <circle class="cls-4" cx="0.5" cy="0.5"/>
    </g>
    <g id="Ellipse_502" data-name="Ellipse 502" class="cls-2" transform="translate(28 570)">
      <circle class="cls-3" cx="0.5" cy="0.5" r="0.5"/>
      <circle class="cls-4" cx="0.5" cy="0.5"/>
    </g>
    <g id="Ellipse_503" data-name="Ellipse 503" class="cls-2" transform="translate(26 570)">
      <circle class="cls-3" cx="0.5" cy="0.5" r="0.5"/>
      <circle class="cls-4" cx="0.5" cy="0.5"/>
    </g>
    <g id="Ellipse_504" data-name="Ellipse 504" class="cls-2" transform="translate(26 568)">
      <circle class="cls-3" cx="0.5" cy="0.5" r="0.5"/>
      <circle class="cls-4" cx="0.5" cy="0.5"/>
    </g>
    <g id="Ellipse_505" data-name="Ellipse 505" class="cls-2" transform="translate(26 566)">
      <circle class="cls-3" cx="0.5" cy="0.5" r="0.5"/>
      <circle class="cls-4" cx="0.5" cy="0.5"/>
    </g>
  </g>
</svg>
