<svg xmlns="http://www.w3.org/2000/svg" width="24" height="31.666" viewBox="0 0 24 31.666">
  <defs>
    <style>
      .cls-1 {
        fill: #888b8d;
      }
    </style>
  </defs>
  <g id="Group_4749" data-name="Group 4749" transform="translate(-0.025 -0.025)">
    <path id="Path_886" data-name="Path 886" class="cls-1" d="M24.025,11.92a2.268,2.268,0,0,0-.719-1.637,2.522,2.522,0,0,0-3.45,0l-8.266,7.824a3.378,3.378,0,0,0-1.366-3.139.535.535,0,0,0-.671.068l-5.87,5.572A4.491,4.491,0,0,0,2.319,23.2l-.647,3.889L.187,28.5a.49.49,0,0,0,0,.728.58.58,0,0,0,.383.159.524.524,0,0,0,.383-.159L2.559,27.7a.608.608,0,0,0,.144-.273l.671-4.094a3.558,3.558,0,0,1,1.054-2l5.534-5.254c.407.455.982,1.524.216,3.366L7.254,22.222a.49.49,0,0,0,0,.728.58.58,0,0,0,.383.159.524.524,0,0,0,.383-.159l2.995-2.843h0l9.583-9.1a1.442,1.442,0,0,1,1.941,0,1.271,1.271,0,0,1,0,1.842l-5.1,4.822h0l-3.091,2.934h0l-.431.409a.49.49,0,0,0,0,.728.555.555,0,0,0,.767,0L18.2,18.4a1.336,1.336,0,0,1,1.821,0,1.178,1.178,0,0,1,0,1.728l-1.509,1.433h0l-1.989,1.888a.49.49,0,0,0,0,.728.555.555,0,0,0,.767,0l.024-.023h0l1.965-1.865a1.336,1.336,0,0,1,1.821,0,1.178,1.178,0,0,1,0,1.728l-1.917,1.8h0l-1.054,1a.49.49,0,0,0,0,.728.555.555,0,0,0,.767,0l.767-.728h0l.287-.273a1.385,1.385,0,0,1,1.821,0,1.166,1.166,0,0,1,0,1.728l-3.162,3C16.79,33,13.555,34.731,10.848,34.731a.489.489,0,0,0-.383.159L8.668,36.6a.49.49,0,0,0,0,.728.58.58,0,0,0,.383.159.524.524,0,0,0,.383-.159l1.629-1.547a14.173,14.173,0,0,0,8.289-3.753l3.162-3a2.144,2.144,0,0,0,.695-1.592,2.181,2.181,0,0,0-.695-1.592,2.363,2.363,0,0,0-1.2-.591l.527-.5a2.171,2.171,0,0,0,0-3.161,2.425,2.425,0,0,0-1.174-.614l.12-.114a2.171,2.171,0,0,0,0-3.161,2.425,2.425,0,0,0-1.174-.614l3.69-3.525A2.307,2.307,0,0,0,24.025,11.92Z" transform="translate(0 -5.792)"/>
    <path id="Path_887" data-name="Path 887" class="cls-1" d="M25.865,5.063H36.228L33.69,7.6a.675.675,0,0,0,0,.967.713.713,0,0,0,.483.211.644.644,0,0,0,.483-.211l3.686-3.716a.918.918,0,0,0,.151-.211.75.75,0,0,0,0-.514.542.542,0,0,0-.151-.211L34.657.229a.675.675,0,0,0-.967,0,.675.675,0,0,0,0,.967l2.538,2.538H25.865a.665.665,0,1,0,0,1.329Z" transform="translate(-22.229)"/>
  </g>
</svg>
